<?xml version="1.0" standalone="no"?>
<!DOCTYPE svg PUBLIC "-//W3C//DTD SVG 20010904//EN"
 "http://www.w3.org/TR/2001/REC-SVG-20010904/DTD/svg10.dtd">
<svg version="1.0" xmlns="http://www.w3.org/2000/svg"
 width="512.000000pt" height="512.000000pt" viewBox="0 0 512.000000 512.000000"
 preserveAspectRatio="xMidYMid meet">
<metadata>
Created by potrace 1.14, written by Peter Selinger 2001-2017
</metadata>
<g transform="translate(0.000000,512.000000) scale(0.100000,-0.100000)"
fill="#000000" stroke="none">
<path d="M838 5101 c-31 -10 -76 -30 -100 -44 -54 -32 -129 -110 -157 -165
-54 -105 -51 20 -51 -2332 0 -2380 -4 -2230 57 -2342 49 -89 154 -171 262
-202 49 -14 224 -16 1730 -14 l1676 3 63 26 c116 49 192 125 241 241 l26 63 3
2195 c1 1486 -1 2211 -8 2245 -33 157 -150 283 -309 331 -38 11 -318 14 -1711
13 -1583 0 -1668 -1 -1722 -18z m3443 -149 c59 -29 115 -85 142 -142 l22 -45
0 -2205 0 -2205 -24 -47 c-29 -59 -82 -112 -141 -141 l-45 -22 -1675 0 -1675
0 -47 23 c-62 31 -118 90 -145 154 l-22 53 2 2195 2 2195 22 45 c39 79 116
143 198 163 11 3 767 4 1680 3 l1660 -1 46 -23z"/>
<path d="M951 4694 c-21 -26 -21 -36 -21 -549 l0 -522 23 -21 23 -22 1583 0
1582 0 24 25 25 24 0 524 0 524 -23 21 -23 22 -1586 0 -1587 0 -20 -26z m3099
-544 l0 -430 -1490 0 -1490 0 0 430 0 430 1490 0 1490 0 0 -430z"/>
<path d="M1269 3315 c-3 -2 -17 -6 -33 -9 -51 -9 -135 -58 -185 -107 -210
-211 -132 -563 149 -673 62 -25 187 -28 253 -7 148 46 257 164 286 311 25 131
-11 258 -102 357 -78 85 -164 123 -288 129 -42 2 -78 2 -80 -1z m186 -163
c171 -90 204 -306 66 -435 -141 -132 -363 -79 -431 101 -34 90 -19 180 44 265
64 87 222 121 321 69z"/>
<path d="M2437 3299 c-95 -32 -153 -75 -209 -155 -148 -210 -74 -488 161 -601
71 -35 82 -37 171 -37 86 0 101 3 162 31 268 126 329 463 121 665 -49 48 -120
88 -184 106 -59 16 -161 12 -222 -9z m231 -144 c211 -99 212 -390 2 -487 -58
-27 -149 -29 -212 -5 -100 39 -177 164 -165 268 23 189 210 301 375 224z"/>
<path d="M3670 3304 c-60 -18 -87 -32 -141 -74 -96 -73 -148 -175 -154 -302
-16 -344 386 -552 655 -339 61 49 84 77 116 140 111 227 -9 502 -251 574 -62
18 -166 18 -225 1z m229 -153 c196 -100 200 -374 7 -475 -110 -58 -238 -35
-323 57 -122 132 -76 347 89 422 68 30 162 29 227 -4z"/>
<path d="M1277 2264 c-1 -1 -16 -4 -33 -7 -81 -13 -198 -96 -249 -177 -85
-135 -84 -306 2 -443 104 -165 330 -232 506 -149 93 43 160 109 205 201 34 72
36 82 36 171 -1 84 -4 102 -31 162 -57 123 -167 211 -294 237 -47 10 -134 13
-142 5z m173 -161 c170 -76 209 -305 74 -436 -138 -133 -366 -81 -434 100 -55
146 28 309 180 353 43 13 133 4 180 -17z"/>
<path d="M2470 2260 c-89 -21 -183 -83 -236 -154 -103 -139 -109 -337 -14
-470 48 -66 64 -82 121 -119 211 -135 473 -58 587 172 35 71 37 80 37 171 0
91 -2 101 -38 172 -41 85 -119 165 -191 197 -82 37 -188 49 -266 31z m206
-158 c164 -84 202 -297 76 -426 -58 -60 -105 -80 -192 -80 -85 -1 -132 18
-189 76 -132 132 -90 354 81 433 64 29 163 28 224 -3z"/>
<path d="M3685 2257 c-121 -31 -223 -117 -278 -235 l-32 -67 -3 -575 c-2 -388
1 -596 8 -639 56 -325 457 -452 689 -218 55 55 87 111 106 184 13 49 15 148
15 628 -1 332 -5 588 -11 613 -22 98 -97 207 -176 255 -92 56 -222 78 -318 54z
m198 -151 c58 -23 107 -69 139 -128 l23 -43 2 -590 3 -590 -25 -53 c-27 -59
-77 -111 -133 -138 -55 -27 -174 -26 -228 3 -56 30 -103 78 -128 133 -20 44
-21 61 -23 622 -3 558 -2 579 17 630 31 81 82 131 162 159 65 23 128 22 191
-5z"/>
<path d="M1245 1205 c-135 -34 -234 -119 -286 -245 -31 -76 -32 -221 -2 -296
88 -221 340 -323 555 -225 90 41 180 141 212 236 74 216 -37 443 -254 520 -59
21 -163 26 -225 10z m210 -155 c95 -46 150 -135 149 -240 -1 -107 -52 -191
-149 -243 -58 -31 -173 -30 -234 1 -84 45 -136 120 -147 214 -14 124 61 241
182 283 52 18 146 11 199 -15z"/>
<path d="M2480 1209 c-61 -12 -97 -27 -149 -62 -62 -42 -96 -82 -135 -159
-117 -229 13 -508 268 -577 58 -15 183 -7 244 17 49 19 117 67 164 116 11 12
36 54 55 94 77 159 41 346 -89 468 -46 43 -129 89 -180 100 -49 10 -135 12
-178 3z m192 -157 c164 -73 206 -302 78 -430 -56 -57 -105 -77 -190 -77 -59 0
-84 5 -119 24 -215 113 -189 426 41 496 56 17 135 12 190 -13z"/>
</g>
</svg>
